<?xml version="1.0" standalone="no"?>
<!DOCTYPE svg PUBLIC "-//W3C//DTD SVG 20010904//EN"
 "http://www.w3.org/TR/2001/REC-SVG-20010904/DTD/svg10.dtd">
<svg version="1.0" xmlns="http://www.w3.org/2000/svg"
 width="512.000000pt" height="512.000000pt" viewBox="0 0 512.000000 512.000000"
 preserveAspectRatio="xMidYMid meet">

<g transform="translate(0.000000,512.000000) scale(0.100000,-0.100000)"
fill="#000000" stroke="none">
<path d="M2135 5104 c-420 -77 -751 -381 -862 -791 -20 -76 -27 -131 -32 -248
l-6 -150 -65 0 -65 0 -5 258 c-5 241 -6 260 -24 273 -23 16 -59 18 -86 4 -34
-18 -40 -65 -40 -306 l0 -232 -52 -18 c-70 -23 -139 -92 -162 -162 -15 -43
-17 -80 -14 -195 4 -165 15 -197 94 -266 66 -58 119 -71 285 -71 l136 0 5
-102 c11 -222 124 -406 316 -515 114 -64 165 -75 375 -81 l187 -4 0 -188 0
-188 -97 -22 c-152 -35 -267 -76 -409 -145 -136 -68 -196 -114 -220 -172 l-14
-33 -173 0 c-200 0 -264 -12 -345 -66 -85 -56 -138 -141 -152 -242 -14 -108
23 -225 96 -297 l36 -36 -17 -211 c-16 -207 -16 -211 3 -237 26 -36 80 -40
109 -9 19 20 23 44 36 201 7 97 16 179 18 181 2 3 48 2 102 -1 l97 -6 -1 -36
c0 -20 -15 -216 -32 -436 l-32 -400 -103 -3 -103 -3 7 119 7 118 -28 22 c-31
25 -44 27 -78 11 -37 -17 -45 -45 -53 -192 -6 -120 -5 -137 12 -165 33 -56 65
-64 249 -60 159 3 164 4 190 28 15 14 31 33 36 43 8 14 79 846 79 930 0 42 35
36 59 -11 27 -53 73 -91 178 -148 102 -56 188 -133 227 -204 43 -79 56 -163
56 -373 l0 -187 34 -38 34 -37 632 0 632 0 34 37 34 38 0 187 c0 210 13 294
56 373 39 71 125 148 227 204 105 57 151 95 178 148 24 47 59 53 59 11 0 -84
71 -916 79 -930 5 -10 21 -29 36 -43 26 -24 31 -25 190 -28 183 -4 217 4 248
57 23 39 22 58 -18 587 l-36 460 36 40 c151 162 123 419 -57 538 -81 54 -145
66 -345 66 l-173 0 -14 33 c-24 58 -84 104 -220 172 -141 69 -256 110 -410
145 l-96 22 0 188 0 188 188 4 c198 6 289 23 343 67 32 26 32 86 0 112 -30 24
-48 24 -124 -3 -62 -23 -63 -23 -819 -26 -656 -2 -766 -1 -824 13 -172 40
-305 162 -355 326 -19 63 -20 89 -17 640 l3 574 28 89 c32 103 101 241 151
304 l35 44 -7 -39 c-4 -21 -7 -364 -7 -763 l0 -725 27 -51 c28 -53 85 -111
140 -141 31 -17 79 -18 798 -18 719 0 767 1 798 18 55 30 112 88 140 141 l27
51 3 715 c1 423 -1 733 -7 760 l-9 45 34 -40 c46 -54 128 -222 156 -320 23
-79 23 -86 23 -670 l0 -590 -28 -65 c-40 -91 -41 -102 -17 -133 27 -34 80 -37
111 -6 48 48 89 191 89 312 l0 77 138 0 c167 0 220 13 286 71 79 69 90 101 94
266 3 115 1 152 -14 195 -23 70 -92 139 -162 162 l-52 18 0 232 c0 241 -6 288
-40 306 -27 14 -63 12 -86 -4 -18 -13 -19 -32 -24 -273 l-5 -258 -65 0 -65 0
-6 150 c-9 232 -61 395 -184 580 -71 108 -226 254 -336 320 -92 54 -220 106
-326 131 -98 24 -780 30 -898 8z m105 -1294 c17 -17 20 -33 20 -114 0 -115
-14 -141 -78 -141 -70 0 -82 21 -82 137 0 116 13 138 80 138 27 0 47 -7 60
-20z m760 0 c17 -17 20 -33 20 -118 0 -116 -12 -137 -82 -137 -64 0 -78 26
-78 141 0 112 13 134 80 134 27 0 47 -7 60 -20z m-96 -1825 c120 -19 269 -56
368 -91 88 -32 241 -107 286 -141 l32 -24 0 -339 0 -339 -42 -29 c-24 -15 -74
-45 -113 -66 -141 -76 -240 -191 -292 -336 -25 -70 -27 -89 -31 -272 l-4 -198
-548 0 -548 0 -4 193 c-4 177 -7 198 -32 272 -53 157 -151 266 -318 356 -45
24 -92 52 -105 62 l-23 18 0 339 0 339 33 24 c166 123 480 218 827 251 88 8
417 -4 514 -19z m1230 -977 c5 -31 66 -817 66 -846 0 -10 -24 -12 -102 -10
l-103 3 -32 400 c-17 220 -32 417 -32 437 l-1 37 73 4 c39 1 84 4 99 5 23 2
28 -2 32 -30z"/>
<path d="M2232 1553 c-64 -31 -102 -111 -84 -177 15 -52 282 -465 321 -495 49
-37 133 -37 182 0 39 30 306 443 321 495 18 66 -21 147 -86 178 -51 24 -605
24 -654 -1z m588 -142 c0 -19 -248 -396 -260 -396 -12 0 -260 377 -260 396 0
5 105 9 260 9 155 0 260 -4 260 -9z"/>
</g>
</svg>
